<svg width="16" height="16" viewBox="0 0 16 16" fill="none" xmlns="http://www.w3.org/2000/svg">
<path d="M9.79063 8.79497C8.83463 9.09897 7.90797 8.25497 8.12197 7.27497C8.13086 7.23364 8.14197 7.19297 8.1553 7.15297C8.68263 5.49164 9.02197 5.15964 9.16463 5.0163C9.18313 4.99639 9.19687 4.97256 9.20484 4.94658C9.2128 4.9206 9.21479 4.89315 9.21063 4.8663C9.20745 4.84209 9.19876 4.81893 9.18524 4.79859C9.17172 4.77825 9.15373 4.76128 9.13263 4.74897C8.47563 4.45074 7.76282 4.29532 7.0413 4.29297C5.65899 4.29315 4.33333 4.8423 3.35582 5.81968C2.37831 6.79707 1.82899 8.12265 1.82863 9.50497C1.81906 9.68929 1.81906 9.87398 1.82863 10.0583C1.83007 10.082 1.8268 10.1057 1.81902 10.1282C1.81124 10.1506 1.7991 10.1713 1.7833 10.189C1.18445 10.9524 0.70147 11.7999 0.349968 12.7043C0.200728 12.9984 0.137451 13.3286 0.167404 13.657C0.197357 13.9854 0.319324 14.2987 0.519301 14.561C0.763968 14.7943 1.09263 14.919 1.4313 14.9063C2.37231 14.7983 3.26985 14.4505 4.03797 13.8963C4.06329 13.8806 4.0925 13.8723 4.1223 13.8723C4.1521 13.8723 4.18131 13.8806 4.20663 13.8963C7.57397 16.0783 12.04 13.7963 12.2466 9.78964C12.2511 9.69497 12.2533 9.60008 12.2533 9.50497C12.2509 8.99762 12.1762 8.4932 12.0313 8.00697C12.023 7.9817 12.0085 7.9589 11.9892 7.94062C11.9699 7.92235 11.9463 7.90918 11.9206 7.9023C11.8987 7.89004 11.8741 7.8836 11.849 7.8836C11.8239 7.8836 11.7992 7.89004 11.7773 7.9023C11.1618 8.29452 10.4926 8.59522 9.79063 8.79497ZM6.42197 9.14697C6.50759 9.06543 6.61988 9.0177 6.73801 9.01263C6.85614 9.00756 6.9721 9.04549 7.06439 9.11939C7.15669 9.1933 7.21906 9.29816 7.23995 9.41454C7.26083 9.53091 7.23881 9.65092 7.17797 9.7523C4.62397 12.1696 2.55797 13.3883 1.7313 13.5836C1.70416 13.5918 1.6753 13.5925 1.6478 13.5856C1.6203 13.5787 1.59519 13.5645 1.57514 13.5445C1.55509 13.5244 1.54086 13.4993 1.53396 13.4718C1.52706 13.4443 1.52775 13.4154 1.53597 13.3883C1.61407 13.0891 1.72777 12.8004 1.87463 12.5283C1.9593 12.365 2.05663 12.183 2.17463 11.981C2.1908 11.9587 2.21242 11.9411 2.23741 11.9296C2.2624 11.9182 2.28991 11.9134 2.3173 11.9156C2.3458 11.9156 2.37375 11.9235 2.398 11.9384C2.42226 11.9534 2.44187 11.9748 2.45463 12.0003C2.46413 12.0197 2.47777 12.0367 2.4946 12.0502C2.51142 12.0636 2.53101 12.0733 2.55197 12.0783C2.59552 12.0916 2.63908 12.0916 2.68263 12.0783C4.0232 11.2273 5.27534 10.2454 6.42197 9.14697Z" fill="#DCECEF"/>
<path d="M11.5237 6.39772C11.521 6.13909 11.4183 5.89154 11.237 5.70706C11.0498 5.53162 10.8029 5.43399 10.5463 5.43399C10.2898 5.43399 10.0429 5.53162 9.85567 5.70706C9.517 6.24972 9.25567 6.83706 9.08033 7.45306C9.06307 7.51088 9.06183 7.5723 9.07674 7.63077C9.09165 7.68924 9.12216 7.74256 9.165 7.78506C9.20722 7.82629 9.25983 7.85532 9.31723 7.86906C9.37463 7.88279 9.43468 7.88072 9.491 7.86306C10.1071 7.69192 10.6953 7.43305 11.2377 7.09439C11.4197 6.90772 11.5217 6.65839 11.5237 6.39772ZM15.185 1.15906L14.169 1.59572C13.9303 1.70372 13.7103 1.84906 13.5177 2.02572L12.7617 2.79439C12.3351 2.6835 11.8875 2.68092 11.4597 2.78686C11.0318 2.8928 10.6372 3.10392 10.3117 3.40105L10.0837 3.62839C10.0238 3.69051 9.99032 3.77344 9.99032 3.85972C9.99032 3.94601 10.0238 4.02893 10.0837 4.09106L12.8463 6.85372C12.9083 6.91572 12.993 6.95106 13.081 6.95106C13.1236 6.95081 13.1657 6.94208 13.2048 6.92536C13.244 6.90865 13.2794 6.88429 13.309 6.85372L13.537 6.62572C13.8361 6.30275 14.0485 5.9093 14.1545 5.48206C14.2605 5.05481 14.2565 4.60769 14.143 4.18239L14.9243 3.40039C15.1021 3.20931 15.2456 2.98896 15.3483 2.74906L15.7843 1.73239C15.8304 1.64886 15.849 1.55293 15.8373 1.45826C15.8257 1.36358 15.7846 1.27497 15.7197 1.20506C15.6471 1.14147 15.556 1.10272 15.4599 1.09444C15.3637 1.08617 15.2674 1.1088 15.185 1.15906Z" fill="#DCECEF"/>
</svg>
