<svg width="51" height="51" viewBox="0 0 51 51" fill="none" xmlns="http://www.w3.org/2000/svg">
<path d="M8.5 14.875C8.5 11.8702 8.5 10.3679 9.435 9.435C10.3658 8.5 11.8681 8.5 14.875 8.5C17.8819 8.5 19.3821 8.5 20.315 9.435C21.25 10.3658 21.25 11.8681 21.25 14.875V36.125C21.25 39.1298 21.25 40.6321 20.315 41.565C19.3843 42.5 17.8819 42.5 14.875 42.5C11.8681 42.5 10.3679 42.5 9.435 41.565C8.5 40.6342 8.5 39.1319 8.5 36.125V14.875ZM29.75 14.875C29.75 11.8702 29.75 10.3679 30.685 9.435C31.6157 8.5 33.1181 8.5 36.125 8.5C39.1319 8.5 40.6321 8.5 41.565 9.435C42.5 10.3658 42.5 11.8681 42.5 14.875V36.125C42.5 39.1298 42.5 40.6321 41.565 41.565C40.6321 42.5 39.1298 42.5 36.125 42.5C33.1202 42.5 31.6179 42.5 30.685 41.565C29.75 40.6342 29.75 39.1319 29.75 36.125V14.875Z" stroke="white" stroke-width="2.5"/>
</svg>
